<svg width="95" height="92" viewBox="0 0 95 92" fill="none" xmlns="http://www.w3.org/2000/svg">
<path d="M48.5205 87.2388C72.0565 87.2387 91.125 68.6569 91.125 45.7495C91.1248 22.8423 72.0563 4.26129 48.5205 4.26123C24.9847 4.26123 5.91626 22.8422 5.91602 45.7495C5.91602 68.657 24.9845 87.2388 48.5205 87.2388Z" stroke="white" stroke-opacity="0.13" stroke-width="0.5"/>
<path d="M48.5205 87.2388C72.0565 87.2387 91.125 68.6569 91.125 45.7495C91.1248 22.8423 72.0563 4.26129 48.5205 4.26123C24.9847 4.26123 5.91626 22.8422 5.91602 45.7495C5.91602 68.657 24.9845 87.2388 48.5205 87.2388Z" stroke="white" stroke-opacity="0.13" stroke-width="0.5"/>
<path d="M48.5205 87.2388C72.0565 87.2387 91.125 68.6569 91.125 45.7495C91.1248 22.8423 72.0563 4.26129 48.5205 4.26123C24.9847 4.26123 5.91626 22.8422 5.91602 45.7495C5.91602 68.657 24.9845 87.2388 48.5205 87.2388Z" stroke="white" stroke-opacity="0.13" stroke-width="0.5"/>
<path d="M48.5205 87.2388C72.0565 87.2387 91.125 68.6569 91.125 45.7495C91.1248 22.8423 72.0563 4.26129 48.5205 4.26123C24.9847 4.26123 5.91626 22.8422 5.91602 45.7495C5.91602 68.657 24.9845 87.2388 48.5205 87.2388Z" stroke="url(#paint0_linear_1408_136)" stroke-width="0.5"/>
<path d="M49.5375 91.25C73.052 91.2499 92.142 70.8946 92.142 45.75C92.142 20.6054 73.052 0.250068 49.5375 0.25C26.0229 0.25 6.93298 20.6054 6.93298 45.75C6.93298 70.8946 26.0229 91.25 49.5375 91.25Z" stroke="white" stroke-opacity="0.13" stroke-width="0.5"/>
<path d="M49.5375 91.25C73.052 91.2499 92.142 70.8946 92.142 45.75C92.142 20.6054 73.052 0.250068 49.5375 0.25C26.0229 0.25 6.93298 20.6054 6.93298 45.75C6.93298 70.8946 26.0229 91.25 49.5375 91.25Z" stroke="white" stroke-opacity="0.13" stroke-width="0.5"/>
<path d="M49.5375 91.25C73.052 91.2499 92.142 70.8946 92.142 45.75C92.142 20.6054 73.052 0.250068 49.5375 0.25C26.0229 0.25 6.93298 20.6054 6.93298 45.75C6.93298 70.8946 26.0229 91.25 49.5375 91.25Z" stroke="white" stroke-opacity="0.13" stroke-width="0.5"/>
<path d="M49.5375 91.25C73.052 91.2499 92.142 70.8946 92.142 45.75C92.142 20.6054 73.052 0.250068 49.5375 0.25C26.0229 0.25 6.93298 20.6054 6.93298 45.75C6.93298 70.8946 26.0229 91.25 49.5375 91.25Z" stroke="url(#paint1_linear_1408_136)" stroke-width="0.5"/>
<path d="M47.5 91.25C73.6199 91.25 94.7498 72.1302 94.75 48.5967C94.75 25.0631 73.62 5.94238 47.5 5.94238C21.38 5.94238 0.25 25.0631 0.25 48.5967C0.25018 72.1302 21.3801 91.25 47.5 91.25Z" stroke="white" stroke-opacity="0.13" stroke-width="0.5"/>
<path d="M47.5 91.25C73.6199 91.25 94.7498 72.1302 94.75 48.5967C94.75 25.0631 73.62 5.94238 47.5 5.94238C21.38 5.94238 0.25 25.0631 0.25 48.5967C0.25018 72.1302 21.3801 91.25 47.5 91.25Z" stroke="white" stroke-opacity="0.13" stroke-width="0.5"/>
<path d="M47.5 91.25C73.6199 91.25 94.7498 72.1302 94.75 48.5967C94.75 25.0631 73.62 5.94238 47.5 5.94238C21.38 5.94238 0.25 25.0631 0.25 48.5967C0.25018 72.1302 21.3801 91.25 47.5 91.25Z" stroke="white" stroke-opacity="0.13" stroke-width="0.5"/>
<path d="M47.5 91.25C73.6199 91.25 94.7498 72.1302 94.75 48.5967C94.75 25.0631 73.62 5.94238 47.5 5.94238C21.38 5.94238 0.25 25.0631 0.25 48.5967C0.25018 72.1302 21.3801 91.25 47.5 91.25Z" stroke="url(#paint2_linear_1408_136)" stroke-width="0.5"/>
<path d="M45.8833 91.25C68.62 91.25 87.0933 70.9027 87.0933 45.75C87.0933 20.5973 68.62 0.25 45.8833 0.25C23.1468 0.250248 4.67432 20.5975 4.67432 45.75C4.67432 70.9025 23.1468 91.2498 45.8833 91.25Z" stroke="white" stroke-opacity="0.13" stroke-width="0.5"/>
<path d="M45.8833 91.25C68.62 91.25 87.0933 70.9027 87.0933 45.75C87.0933 20.5973 68.62 0.25 45.8833 0.25C23.1468 0.250248 4.67432 20.5975 4.67432 45.75C4.67432 70.9025 23.1468 91.2498 45.8833 91.25Z" stroke="white" stroke-opacity="0.13" stroke-width="0.5"/>
<path d="M45.8833 91.25C68.62 91.25 87.0933 70.9027 87.0933 45.75C87.0933 20.5973 68.62 0.25 45.8833 0.25C23.1468 0.250248 4.67432 20.5975 4.67432 45.75C4.67432 70.9025 23.1468 91.2498 45.8833 91.25Z" stroke="white" stroke-opacity="0.13" stroke-width="0.5"/>
<path d="M45.8833 91.25C68.62 91.25 87.0933 70.9027 87.0933 45.75C87.0933 20.5973 68.62 0.25 45.8833 0.25C23.1468 0.250248 4.67432 20.5975 4.67432 45.75C4.67432 70.9025 23.1468 91.2498 45.8833 91.25Z" stroke="url(#paint3_linear_1408_136)" stroke-width="0.5"/>
<defs>
<linearGradient id="paint0_linear_1408_136" x1="48.5204" y1="87.4888" x2="48.5204" y2="4.01113" gradientUnits="userSpaceOnUse">
<stop stop-color="#E6FCC8"/>
<stop offset="1" stop-color="#E5CCFC"/>
</linearGradient>
<linearGradient id="paint1_linear_1408_136" x1="49.5374" y1="91.5" x2="49.5374" y2="0" gradientUnits="userSpaceOnUse">
<stop stop-color="#E6FCC8"/>
<stop offset="1" stop-color="#E5CCFC"/>
</linearGradient>
<linearGradient id="paint2_linear_1408_136" x1="47.5" y1="91.5" x2="47.5" y2="5.69276" gradientUnits="userSpaceOnUse">
<stop stop-color="#E6FCC8"/>
<stop offset="1" stop-color="#E5CCFC"/>
</linearGradient>
<linearGradient id="paint3_linear_1408_136" x1="45.8837" y1="91.5" x2="45.8837" y2="0" gradientUnits="userSpaceOnUse">
<stop stop-color="#E6FCC8"/>
<stop offset="1" stop-color="#E5CCFC"/>
</linearGradient>
</defs>
</svg>
